<svg width="217" height="44" viewBox="0 0 217 44" fill="none" xmlns="http://www.w3.org/2000/svg">
<g clip-path="url(#clip0_6009_15012)">
<path d="M53.1406 9.68205C57.5509 12.0361 59.0985 17.4428 59.321 19.8519C59.2901 21.6588 58.8669 23.5117 58.0812 25.2952C57.2114 27.2703 55.897 29.1605 54.1771 30.8101C53.5633 31.3992 52.8978 31.9575 52.1822 32.4782C48.8649 34.8917 45.0703 36.0607 41.5397 36.0226C41.0913 36.0179 41.4295 35.4289 42.0289 35.1457C42.5657 34.892 43.0961 34.6259 43.6191 34.3461C45.0215 33.5957 46.3725 32.7487 47.6277 31.7801C48.8812 30.8118 50.0399 29.7187 51.0171 28.484C50.0021 29.6889 48.8148 30.7417 47.5396 31.6663C46.2628 32.5911 44.8967 33.3906 43.4839 34.0926C42.5922 34.5355 41.6811 34.9391 40.7557 35.3083C39.5848 35.7796 37.2044 36.2332 35.9445 35.0029C35.6104 34.6159 35.8327 34.0176 36.4607 33.5277C36.8936 33.1903 37.7348 32.876 37.8445 32.8309C39.0515 32.3376 40.2341 31.7879 41.3816 31.1746C42.784 30.4239 44.1352 29.5771 45.39 28.6085C46.6437 27.6403 47.8024 26.5471 48.7797 25.3123C47.7645 26.5171 46.5773 27.5699 45.3018 28.4946C44.0251 29.4196 42.6593 30.2189 41.2462 30.9211C39.8326 31.6228 38.3707 32.2278 36.881 32.7505C36.1358 33.0117 33.5939 33.334 33.0086 32.3623C32.4235 31.3905 33.7747 30.4782 34.3846 30.2432C35.8732 29.6698 37.3291 29.0153 38.7324 28.2651C40.1346 27.5145 41.4856 26.6675 42.7408 25.6989C43.9944 24.7307 45.1532 23.6376 46.1304 22.4029C45.1152 23.6077 43.9278 24.6604 42.6526 25.585C41.3758 26.5098 40.0099 27.3096 38.5969 28.0117C37.6992 28.4572 36.7817 28.864 35.8503 29.2352C35.6198 29.3272 34.6075 29.7934 33.9726 29.8607C33.1337 29.9496 32.6513 29.5967 32.5185 29.2759C32.2849 28.7122 33.011 27.6865 33.1988 27.451C33.5744 26.9797 34.5184 26.3644 35.1086 25.9101C37.5776 24.3552 40.5232 22.4452 42.5203 20.3487C42.9489 19.8987 44.4669 18.5878 44.8046 17.1605C44.9006 16.7553 44.9013 16.341 44.7551 15.9342C44.7427 15.8996 44.7294 15.8653 44.7148 15.8309C44.6722 15.774 44.6279 15.72 44.5816 15.669C43.0291 13.9548 39.4228 15.4492 38.032 16.3318C37.9468 16.3858 37.87 16.4375 37.8025 16.4862C35.7353 17.9729 33.8869 20.3258 33.0611 19.182C31.7542 17.3715 34.0695 14.2214 34.5417 13.7565C34.6505 13.6493 34.761 13.5433 34.8734 13.4383C35.4423 12.9047 36.0545 12.398 36.708 11.9224C40.471 9.18461 44.8478 8.04794 48.7569 8.45812C48.7942 8.46178 48.831 8.46582 48.868 8.47022C50.3858 8.64108 51.8312 9.04625 53.1406 9.68205Z" fill="#6B39F4"/>
<path d="M11.7657 9.68205C7.35535 12.0361 5.80775 17.4428 5.58525 19.8519C5.61619 21.6588 6.03933 23.5117 6.82509 25.2952C7.69487 27.2703 9.00929 29.1605 10.7291 30.8101C11.3429 31.3992 12.0084 31.9575 12.724 32.4782C16.0414 34.8917 19.836 36.0607 23.3666 36.0226C23.815 36.0179 23.4767 35.4289 22.8774 35.1457C22.3406 34.892 21.8101 34.6259 21.2871 34.3461C19.8848 33.5957 18.5338 32.7487 17.2786 31.7801C16.025 30.8118 14.8663 29.7187 13.8891 28.484C14.9042 29.6889 16.0915 30.7417 17.3666 31.6663C18.6434 32.5911 20.0096 33.3906 21.4223 34.0926C22.314 34.5355 23.2252 34.9391 24.1506 35.3083C25.3215 35.7796 27.7019 36.2332 28.9617 35.0029C29.2958 34.6159 29.0735 34.0176 28.4455 33.5277C28.0127 33.1903 27.1715 32.876 27.0618 32.8309C25.8548 32.3376 24.6722 31.7879 23.5247 31.1746C22.1222 30.4239 20.771 29.5771 19.5162 28.6085C18.2626 27.6403 17.1039 26.5471 16.1265 25.3123C17.1417 26.5171 18.329 27.5699 19.6044 28.4946C20.8811 29.4196 22.247 30.2189 23.66 30.9211C25.0737 31.6228 26.5355 32.2278 28.0253 32.7505C28.7704 33.0117 31.3123 33.334 31.8976 32.3623C32.4827 31.3905 31.1316 30.4782 30.5217 30.2432C29.033 29.6698 27.5771 29.0153 26.1739 28.2651C24.7717 27.5145 23.4207 26.6675 22.1655 25.6989C20.9118 24.7307 19.7531 23.6376 18.7759 22.4029C19.7911 23.6077 20.9785 24.6604 22.2536 25.585C23.5305 26.5098 24.8963 27.3096 26.3094 28.0117C27.2071 28.4572 28.1245 28.864 29.0559 29.2352C29.2865 29.3272 30.2988 29.7934 30.9336 29.8607C31.7726 29.9496 32.255 29.5967 32.3878 29.2759C32.6214 28.7122 31.8952 27.6865 31.7074 27.451C31.3318 26.9797 30.3878 26.3644 29.7977 25.9101C27.3287 24.3552 24.383 22.4452 22.386 20.3487C21.9573 19.8987 20.4394 18.5878 20.1016 17.1605C20.0057 16.7553 20.0049 16.341 20.1512 15.9342C20.1635 15.8996 20.1769 15.8653 20.1914 15.8309C20.2341 15.774 20.2784 15.72 20.3246 15.669C21.8772 13.9548 25.4835 15.4492 26.8742 16.3318C26.9594 16.3858 27.0363 16.4375 27.1038 16.4862C29.1709 17.9729 31.0194 20.3258 31.8452 19.182C33.152 17.3715 30.8368 14.2214 30.3646 13.7565C30.2558 13.6493 30.1452 13.5433 30.0329 13.4383C29.464 12.9047 28.8518 12.398 28.1982 11.9224C24.4352 9.18461 20.0585 8.04794 16.1493 8.45812C16.1121 8.46178 16.0752 8.46582 16.0382 8.47022C14.5204 8.64108 13.0751 9.04625 11.7657 9.68205Z" fill="#6B39F4"/>
</g>
<path d="M79.8733 9.332L87.4693 9.44C91.4053 9.44 94.2853 9.296 96.1093 9.008C96.3733 9.512 96.5053 10.088 96.5053 10.736C96.5053 11.384 96.2173 11.972 95.6413 12.5C95.0653 13.004 94.3693 13.256 93.5533 13.256L89.4133 12.788C89.4133 12.956 89.3533 13.7 89.2333 15.02C88.8973 18.26 88.7293 21.512 88.7293 24.776C88.7293 28.04 88.9813 31.304 89.4853 34.568C88.6933 34.856 87.8653 35 87.0013 35C86.1373 35 85.3933 34.76 84.7693 34.28C84.1453 33.776 83.8333 33.032 83.8333 32.048C83.8333 31.04 83.9533 29.276 84.1933 26.756C84.4333 24.236 84.5533 21.788 84.5533 19.412C84.5533 17.012 84.4333 14.78 84.1933 12.716C81.2893 12.86 79.0213 13.268 77.3893 13.94C77.1013 13.388 76.9573 12.776 76.9573 12.104C76.9573 11.408 77.2333 10.772 77.7853 10.196C78.3373 9.62 79.0333 9.332 79.8733 9.332ZM113.354 18.044C112.706 20.804 112.382 23.576 112.382 26.36C112.382 29.12 112.694 31.856 113.318 34.568C112.454 34.856 111.566 35 110.654 35C109.742 35 109.106 34.736 108.746 34.208C108.386 33.656 108.206 32.876 108.206 31.868C108.206 30.836 108.362 29.432 108.674 27.656C106.97 31.304 105.326 33.608 103.742 34.568C103.022 35 102.278 35.216 101.51 35.216C99.6865 35.216 98.2705 34.544 97.2625 33.2C96.2545 31.832 95.7505 30.14 95.7505 28.124C95.7505 25.052 96.6025 22.364 98.3065 20.06C100.01 17.732 102.218 16.568 104.93 16.568C107.666 16.568 110.474 17.06 113.354 18.044ZM108.638 20.204C107.366 19.82 106.286 19.628 105.398 19.628C103.598 19.628 102.254 20.024 101.366 20.816C100.55 22.832 100.142 24.884 100.142 26.972C100.142 28.076 100.31 29.192 100.646 30.32C101.006 31.448 101.546 32.012 102.266 32.012C103.106 32.012 104.186 30.776 105.506 28.304C106.826 25.832 107.87 23.132 108.638 20.204ZM121.524 28.448C121.452 28.784 121.416 29.06 121.416 29.276C121.416 30.26 121.704 31.016 122.28 31.544C122.88 32.072 123.672 32.336 124.656 32.336C125.664 32.336 126.492 32.156 127.14 31.796C127.812 31.412 128.148 30.848 128.148 30.104C128.148 29.36 127.788 28.772 127.068 28.34C126.372 27.884 125.52 27.524 124.512 27.26C123.528 26.996 122.532 26.708 121.524 26.396C120.516 26.06 119.652 25.544 118.932 24.848C118.236 24.152 117.888 23.276 117.888 22.22C117.888 20.564 118.764 19.172 120.516 18.044C122.268 16.916 124.104 16.352 126.024 16.352C128.136 16.352 129.744 16.784 130.848 17.648C131.496 18.152 131.82 18.824 131.82 19.664C131.82 20.48 131.496 21.152 130.848 21.68C130.224 22.184 129.456 22.436 128.544 22.436C128.352 22.436 128.112 22.412 127.824 22.364C127.896 22.052 127.932 21.776 127.932 21.536C127.932 20.84 127.668 20.312 127.14 19.952C126.612 19.592 125.892 19.412 124.98 19.412C124.092 19.412 123.276 19.592 122.532 19.952C122.244 20.336 122.1 20.828 122.1 21.428C122.1 22.028 122.448 22.52 123.144 22.904C123.84 23.264 124.68 23.588 125.664 23.876C126.672 24.14 127.68 24.452 128.688 24.812C129.696 25.148 130.548 25.688 131.244 26.432C131.94 27.152 132.288 28.064 132.288 29.168C132.288 30.968 131.388 32.468 129.588 33.668C127.812 34.844 125.976 35.432 124.08 35.432C122.184 35.432 120.612 35.096 119.364 34.424C118.14 33.728 117.528 32.684 117.528 31.292C117.528 30.428 117.84 29.732 118.464 29.204C119.112 28.652 119.892 28.376 120.804 28.376C120.996 28.376 121.236 28.4 121.524 28.448ZM143.666 35.432C141.098 35.432 139.13 34.748 137.762 33.38C136.394 32.012 135.71 30.044 135.71 27.476C135.71 24.356 136.586 21.728 138.338 19.592C140.09 17.432 142.418 16.352 145.322 16.352C146.978 16.352 148.322 16.688 149.354 17.36C150.386 18.008 150.902 18.98 150.902 20.276C150.902 21.116 150.566 21.872 149.894 22.544C149.222 23.192 148.466 23.516 147.626 23.516C147.434 23.516 147.194 23.492 146.906 23.444C146.978 23.132 147.014 22.856 147.014 22.616C147.014 21.752 146.786 21.02 146.33 20.42C145.874 19.82 145.118 19.52 144.062 19.52C143.006 19.52 142.022 19.952 141.11 20.816C140.462 22.496 140.138 24.596 140.138 27.116C140.138 30.548 141.434 32.264 144.026 32.264C145.418 32.264 146.45 31.82 147.122 30.932C147.818 30.02 148.166 29 148.166 27.872C148.982 27.872 149.69 28.076 150.29 28.484C150.89 28.892 151.19 29.456 151.19 30.176C151.19 31.736 150.386 33.008 148.778 33.992C147.194 34.952 145.49 35.432 143.666 35.432ZM162.714 35.432C160.074 35.432 158.13 34.664 156.882 33.128C155.634 31.568 155.01 29.408 155.01 26.648C155.01 23.864 155.838 21.452 157.494 19.412C159.15 17.372 161.274 16.352 163.866 16.352C169.194 16.352 171.858 19.352 171.858 25.352C171.858 28.16 170.994 30.548 169.266 32.516C167.538 34.46 165.354 35.432 162.714 35.432ZM160.122 20.312C159.69 21.704 159.474 23.096 159.474 24.488C159.474 25.88 159.522 26.96 159.618 27.728C159.714 28.496 159.894 29.264 160.158 30.032C160.71 31.592 161.79 32.372 163.398 32.372C165.03 32.372 166.098 31.94 166.602 31.076C167.13 30.212 167.394 28.88 167.394 27.08C167.394 21.968 166.182 19.412 163.758 19.412C162.366 19.412 161.154 19.712 160.122 20.312ZM203.993 20.456L203.633 28.16C203.633 30.488 203.969 32.696 204.641 34.784C203.969 35.072 203.201 35.216 202.337 35.216C200.297 35.216 199.277 34.076 199.277 31.796C199.277 30.764 199.409 29.036 199.673 26.612C199.937 24.164 200.069 22.628 200.069 22.004C200.069 20.804 199.577 20.204 198.593 20.204C197.513 20.204 196.217 21.308 194.705 23.516C193.217 25.724 192.473 27.452 192.473 28.7C192.593 30.596 192.929 32.48 193.481 34.352C192.569 34.64 191.801 34.784 191.177 34.784C189.137 34.784 188.117 33.644 188.117 31.364C188.117 30.404 188.249 28.796 188.513 26.54C188.777 24.284 188.909 22.868 188.909 22.292C188.909 21.092 188.369 20.492 187.289 20.492C186.545 20.492 185.693 21.044 184.733 22.148C183.773 23.252 182.957 24.476 182.285 25.82C181.637 27.14 181.289 28.196 181.241 28.988C181.361 31.052 181.601 32.912 181.961 34.568C181.193 34.856 180.389 35 179.549 35C178.733 35 178.061 34.808 177.533 34.424C177.029 34.016 176.777 33.464 176.777 32.768C176.777 32.048 176.885 30.776 177.101 28.952C177.317 27.104 177.425 25.28 177.425 23.48C177.425 21.656 177.149 19.568 176.597 17.216C177.365 16.928 178.181 16.784 179.045 16.784C179.909 16.784 180.605 17.036 181.133 17.54C181.685 18.044 181.961 18.716 181.961 19.556C181.961 19.988 181.877 21.044 181.709 22.724C182.597 21.14 183.725 19.772 185.093 18.62C186.461 17.444 187.829 16.856 189.197 16.856C191.621 16.856 192.833 18.152 192.833 20.744C192.833 21.392 192.797 22.112 192.725 22.904C193.613 21.224 194.753 19.748 196.145 18.476C197.561 17.204 198.965 16.568 200.357 16.568C202.781 16.568 203.993 17.864 203.993 20.456Z" fill="#6B39F4"/>
<defs>
<clipPath id="clip0_6009_15012">
<rect width="64.7778" height="44" fill="white"/>
</clipPath>
</defs>
</svg>
